<svg xmlns="http://www.w3.org/2000/svg" width="180" height="180" viewBox="0 0 180 180" version="1.1">
	<path d="M 80.061 3.034 C 70.762 8.159, 69.248 10.152, 67.570 19.472 L 66.495 25.443 60.497 26.593 L 54.500 27.744 60.365 27.872 C 63.591 27.942, 70.341 29.094, 75.365 30.432 C 84.192 32.782, 104.371 34.983, 117.393 35.015 C 120.752 35.024, 124.161 35.449, 124.969 35.960 C 125.888 36.541, 119.521 36.693, 107.969 36.365 C 93.329 35.950, 87.012 35.305, 77.500 33.259 C 64.821 30.530, 53.661 30.043, 48.500 31.993 C 46.025 32.927, 45.727 32.896, 46.794 31.813 C 47.506 31.091, 49.531 29.932, 51.294 29.237 L 54.500 27.974 51.095 28.493 C 49.223 28.778, 47.029 29.561, 46.220 30.232 C 45.412 30.903, 43.565 31.328, 42.117 31.176 C 40.669 31.024, 37.814 31.597, 35.774 32.450 C 33.250 33.504, 28.776 34.005, 21.782 34.015 C 16.127 34.024, 11.006 34.361, 10.401 34.765 C 7.561 36.665, -1.039 56.294, 0.357 57.691 C 0.711 58.044, 1 57.787, 1 57.119 C 1 54.503, 9.925 37.110, 11.775 36.120 C 12.854 35.543, 13.909 35.220, 14.119 35.403 C 14.328 35.585, 16.300 36.009, 18.500 36.344 C 21.354 36.778, 21.927 36.687, 20.500 36.025 C 19.138 35.392, 20.949 35.218, 26.183 35.477 C 30.409 35.687, 34.772 36.343, 35.879 36.935 C 37.656 37.886, 37.761 38.392, 36.779 41.256 C 35.506 44.963, 31.054 52.387, 30.459 51.793 C 30.242 51.575, 30.915 48.583, 31.956 45.145 L 33.849 38.893 31.359 37.947 C 29.990 37.426, 27.437 37.054, 25.685 37.120 C 22.683 37.233, 22.744 37.299, 26.750 38.262 C 29.087 38.824, 31 39.713, 31 40.238 C 31 40.763, 30.280 43.668, 29.400 46.695 L 27.801 52.197 23.150 51.501 C 17.299 50.625, 16.603 50.184, 18.145 48.326 C 18.903 47.412, 20.490 46.992, 22.220 47.246 C 23.976 47.503, 24.903 47.250, 24.657 46.581 C 24.439 45.986, 24.990 44.636, 25.880 43.580 C 27.403 41.776, 27.380 41.708, 25.500 42.444 C 20.937 44.230, 19.728 44.175, 16.850 42.047 C 12.992 39.195, 11.584 40.447, 15.305 43.421 C 17.787 45.405, 17.931 45.812, 16.555 46.954 C 13.700 49.324, 14.796 52.664, 18.250 52.118 C 19.017 51.997, 19.392 54.318, 19.040 57 C 18.931 57.825, 16.993 60.403, 14.733 62.729 C 9.810 67.797, 10.296 69.435, 15.395 64.958 C 17.378 63.217, 19 62.316, 19 62.955 C 19 65.238, 20.753 62.985, 21.367 59.913 C 21.861 57.445, 22.364 56.927, 23.747 57.462 C 28.765 59.403, 31.329 59.210, 37.087 56.458 C 40.339 54.904, 43 53.049, 43 52.335 C 43 51.622, 44.237 50.767, 45.750 50.436 C 47.262 50.104, 49.088 49.650, 49.806 49.426 C 51.726 48.829, 58.246 51.792, 57.537 52.940 C 57.203 53.481, 55.258 54.219, 53.215 54.582 C 47.879 55.529, 40.430 59.782, 36.513 64.117 C 32.200 68.891, 30.558 69.732, 23.923 70.569 C 17.595 71.367, 14.448 73.770, 12.978 78.926 C 11.409 84.429, 8.014 107.917, 8.007 113.316 C 7.998 119.286, 6.925 121.374, 3.038 122.984 L 0 124.243 0 152.121 L 0 180 32.839 180 L 65.679 180 66.818 177.500 C 68.290 174.270, 69.862 174.270, 69.245 177.500 C 68.820 179.720, 69.105 180, 71.786 180 C 74.241 180, 75 179.440, 75.850 177 C 77.176 173.197, 78.433 173.086, 77.682 176.838 C 77.140 179.550, 77.289 179.683, 81.013 179.829 C 83.742 179.936, 85.246 179.460, 86.031 178.241 C 86.848 176.970, 87.024 176.920, 86.682 178.055 C 86.263 179.443, 91.133 179.637, 132.106 179.861 L 178 180.112 177.994 177.806 C 177.983 173.248, 175.808 167.792, 172.560 164.179 C 167.907 159.002, 166.642 152.416, 168.140 141.166 C 169.267 132.698, 169.232 132.367, 166.635 126.876 C 164.123 121.566, 158.284 116, 155.226 116 C 154.578 116, 155.158 114.382, 156.535 112.353 C 159.186 108.446, 163 97.297, 163 93.454 C 163 92.169, 162.550 90.840, 162 90.500 C 159.810 89.147, 161.258 88.198, 166.515 87.541 L 172.031 86.852 169.817 83.743 C 167.935 81.100, 167.867 80.735, 169.364 81.310 C 170.891 81.896, 170.843 81.588, 169 79 C 167.830 77.357, 167.092 75.660, 167.359 75.228 C 167.626 74.795, 170.580 73.135, 173.922 71.537 L 180 68.632 180 63.825 C 180 59.433, 179.699 58.823, 176.512 56.759 C 174.594 55.517, 173.019 54.216, 173.012 53.869 C 173.006 53.521, 174.575 52.036, 176.500 50.568 C 178.425 49.100, 180 47.493, 180 46.997 C 180 46.501, 177.226 45.961, 173.835 45.798 L 167.671 45.500 168.055 37.500 C 169 17.798, 167.876 14.024, 159.343 8.241 C 146.595 -0.398, 148.714 -0.002, 115.290 0.018 L 85.500 0.036 80.061 3.034 M 98.609 2.080 C 86.151 3.494, 71.573 9.363, 69.956 13.615 C 69.430 14.998, 69 18.351, 69 21.065 L 69 26 73.870 26 C 77.869 26, 93.308 28.283, 105 30.603 C 106.935 30.987, 106.756 30.756, 104.207 29.580 C 99.696 27.498, 96.568 20.518, 97.548 14.718 C 99.202 4.925, 111.639 0.198, 120.136 6.133 C 123.749 8.656, 126.292 15.315, 125.479 20.125 C 124.690 24.795, 118.384 30.953, 114.247 31.093 C 112.736 31.144, 115.739 32.267, 120.920 33.589 C 126.101 34.912, 130.437 35.882, 130.555 35.747 C 130.673 35.611, 131.044 28.916, 131.380 20.869 C 131.846 9.715, 131.692 5.990, 130.732 5.193 C 127.390 2.419, 110.252 0.758, 98.609 2.080 M 106.415 6.421 C 99.386 9.482, 96.995 17.198, 101.026 23.810 C 105.324 30.861, 114.596 31.604, 120.804 25.396 C 123.979 22.221, 124.213 21.572, 123.786 17.127 C 122.844 7.321, 115.187 2.602, 106.415 6.421 M 150 5.945 C 150 8.144, 155.508 12.588, 158.179 12.544 C 160.536 12.505, 160.689 12.314, 159.452 10.947 C 157.327 8.599, 150 4.721, 150 5.945 M 106.299 7.960 C 101.542 10.859, 99.675 15.081, 100.990 19.963 C 103.266 28.417, 112.382 30.818, 118.600 24.600 C 121.442 21.758, 121.995 20.486, 121.968 16.850 C 121.934 12.210, 120.967 10.419, 117.027 7.704 C 113.785 5.469, 110.244 5.554, 106.299 7.960 M 164.031 17.500 C 164.031 18.050, 164.467 19.175, 165 20 C 165.533 20.825, 165.969 21.050, 165.969 20.500 C 165.969 19.950, 165.533 18.825, 165 18 C 164.467 17.175, 164.031 16.950, 164.031 17.500 M 108.813 31.683 C 109.534 31.972, 110.397 31.936, 110.729 31.604 C 111.061 31.272, 110.471 31.036, 109.417 31.079 C 108.252 31.127, 108.015 31.364, 108.813 31.683 M 50.500 32.870 C 43.505 34.695, 40.989 37.431, 41.015 43.184 C 41.038 48.174, 42.094 49.295, 45.538 47.986 C 49.240 46.578, 55.673 47.673, 58.129 50.129 C 60.910 52.910, 59.111 55.483, 53.374 56.927 C 50.794 57.577, 47.779 58.742, 46.674 59.516 C 44.720 60.885, 44.744 60.953, 47.583 62.078 C 53.679 64.492, 64.072 66.693, 64.686 65.700 C 65.023 65.154, 65.213 61.511, 65.109 57.604 C 64.849 47.869, 67.522 42.563, 74.500 38.963 L 79.500 36.384 72.500 34.683 C 63.923 32.599, 54.512 31.824, 50.500 32.870 M 76.326 40.428 C 70.385 43.195, 68.052 46.193, 67.263 52.076 L 66.706 56.228 71.424 55.757 C 75.489 55.352, 76.344 55.596, 77.605 57.521 C 79.785 60.848, 80.745 65.182, 79.926 68 L 79.199 70.500 78.993 68 C 78.841 66.171, 78.527 66.657, 77.823 69.808 C 76.043 77.766, 70.550 75.686, 71.188 67.296 C 71.401 64.485, 71.175 63.425, 70.504 64.095 C 69.952 64.646, 69.360 70.858, 69.189 77.899 L 68.878 90.700 75.028 99.801 C 78.410 104.807, 81.791 109.411, 82.540 110.034 C 83.557 110.878, 85.377 110.849, 89.702 109.923 C 97.219 108.313, 96.812 108.583, 103.338 100.854 C 110.176 92.754, 116.143 88.362, 126 84.174 C 132.610 81.366, 133.942 81.112, 137.223 82.033 C 141.648 83.276, 144.835 81.946, 151.216 76.193 C 155.997 71.883, 158.947 66.027, 158.978 60.786 C 158.997 57.606, 158.463 56.707, 155.268 54.536 C 153.215 53.141, 150.853 52.002, 150.018 52.004 C 146.653 52.012, 142.266 55.936, 139.654 61.274 C 135.043 70.699, 134.461 70.253, 134.808 57.554 L 135.117 46.271 130.056 42.636 C 125.379 39.276, 124.460 39, 117.932 39 C 114.047 39, 109.997 39.467, 108.931 40.037 C 107.120 41.006, 107.250 41.318, 110.921 44.810 C 115.150 48.833, 116.752 52.833, 115.226 55.560 C 114.439 56.967, 114.159 56.662, 113.624 53.808 C 113.266 51.901, 111.629 49.060, 109.972 47.473 L 106.969 44.596 107.735 48.048 C 109.736 57.075, 107.094 66.191, 103.096 64.051 C 100.567 62.698, 98 56.929, 98 52.599 C 98 50.619, 97.801 49, 97.557 49 C 97.314 49, 95.562 49.916, 93.664 51.036 C 90.495 52.905, 90.083 52.940, 88.607 51.464 C 86.570 49.427, 86.544 48.645, 88.550 49.768 C 89.690 50.406, 91.214 49.545, 94.300 46.520 C 96.610 44.256, 99.850 41.427, 101.500 40.233 L 104.500 38.063 93 38.041 C 82.920 38.022, 80.861 38.317, 76.326 40.428 M 36.329 47.822 C 35.726 49.295, 34.992 51.231, 34.696 52.125 C 34.043 54.099, 28.622 55.039, 24.579 53.879 C 20.648 52.752, 22.589 54.423, 26.875 55.855 C 29.696 56.798, 30.968 56.665, 34.625 55.048 C 38.589 53.294, 39 52.784, 39 49.615 C 39 45.189, 37.750 44.349, 36.329 47.822 M 101.500 47 C 100.771 48.180, 101.717 50, 103.059 50 C 103.577 50, 104 49.100, 104 48 C 104 45.891, 102.545 45.309, 101.500 47 M 144.455 58.455 C 141.411 61.498, 141.364 62.615, 144.250 63.303 C 145.488 63.597, 147.625 64.178, 149 64.593 C 151.250 65.271, 151.363 65.179, 150.128 63.673 C 149.373 62.753, 147.910 62, 146.878 62 C 145.845 62, 145 61.640, 145 61.200 C 145 59.445, 147.573 58, 150.700 58 C 152.515 58, 154 57.550, 154 57 C 154 54.884, 146.951 55.958, 144.455 58.455 M 68.123 59.924 C 67.397 60.373, 66.980 61.586, 67.195 62.620 C 67.551 64.325, 67.708 64.282, 68.875 62.164 C 70.331 59.522, 70.063 58.725, 68.123 59.924 M 153.481 60.939 C 153.850 62.103, 153.023 64.994, 151.412 68.174 C 149.488 71.970, 149.212 73.069, 150.437 72.052 C 154.722 68.496, 157.216 59, 153.865 59 C 153.315 59, 153.142 59.872, 153.481 60.939 M 73 62.500 C 73 63.325, 73.450 64, 74 64 C 74.550 64, 75 63.325, 75 62.500 C 75 61.675, 74.550 61, 74 61 C 73.450 61, 73 61.675, 73 62.500 M 103 62 C 103 62.550, 103.477 63, 104.059 63 C 104.641 63, 104.840 62.550, 104.500 62 C 104.160 61.450, 103.684 61, 103.441 61 C 103.198 61, 103 61.450, 103 62 M 36.106 66.502 C 33.205 68.978, 29.857 71.194, 28.666 71.426 C 27.475 71.659, 24.506 72.220, 22.069 72.674 C 18.105 73.413, 17.410 73.973, 15.462 78 C 10.777 87.686, 7.642 119.143, 10.802 124.750 C 12.045 126.955, 12.437 127, 30.324 127 C 46.576 127, 49.005 127.218, 52.482 128.991 C 57.310 131.452, 62.567 132.510, 63.385 131.186 C 63.976 130.230, 60.388 123.264, 54.634 114.192 C 53.131 111.823, 52.107 109.123, 52.358 108.192 C 52.609 107.261, 53.077 105.312, 53.399 103.860 C 53.915 101.525, 54.822 101.019, 61.241 99.482 C 65.234 98.526, 68.849 97.431, 69.275 97.047 C 69.702 96.663, 69.401 94.808, 68.608 92.925 C 67.555 90.423, 67.315 87.193, 67.719 80.938 C 68.433 69.876, 67.679 68.416, 60.766 67.476 C 57.870 67.082, 52.521 65.688, 48.879 64.380 C 45.237 63.071, 42.061 62, 41.819 62 C 41.578 62, 39.007 64.026, 36.106 66.502 M 140.012 66.977 C 139.245 68.411, 139.292 69.495, 140.183 70.921 C 141.195 72.543, 141.112 73.219, 139.706 74.773 C 137.289 77.443, 137.584 78.686, 140.096 76.413 C 143.057 73.733, 144.924 68.897, 143.825 66.750 C 142.651 64.455, 141.320 64.534, 140.012 66.977 M 1.478 67.036 C 0.852 68.049, 1.634 68.517, 5.500 69.440 C 7.150 69.834, 9.290 70.868, 10.256 71.738 C 12.626 73.874, 13.763 72.501, 11.602 70.113 C 9.689 67.999, 2.275 65.746, 1.478 67.036 M 104.813 69.683 C 105.534 69.972, 106.397 69.936, 106.729 69.604 C 107.061 69.272, 106.471 69.036, 105.417 69.079 C 104.252 69.127, 104.015 69.364, 104.813 69.683 M 75 78.618 C 75 79.168, 75.661 80.491, 76.468 81.559 C 77.276 82.626, 77.936 83.050, 77.936 82.500 C 77.936 81.950, 77.276 80.626, 76.468 79.559 C 75.661 78.491, 75 78.068, 75 78.618 M 128.286 84.432 C 125.968 85.167, 122.074 86.939, 119.632 88.370 C 114.634 91.299, 104.445 100.300, 102.936 103.119 C 102.041 104.792, 102.196 104.876, 104.538 103.986 C 105.964 103.444, 108.113 103.030, 109.315 103.067 C 110.517 103.105, 109.362 103.710, 106.749 104.413 C 104.137 105.116, 101.165 106.446, 100.146 107.368 C 97.587 109.683, 92.753 118.778, 93.286 120.274 C 93.526 120.948, 92.618 123.412, 91.267 125.750 C 88.186 131.079, 88.851 131.266, 92.444 126.080 C 96.796 119.801, 101.918 116.813, 108.623 116.644 C 112.191 116.554, 114.489 116.031, 114.750 115.250 C 115.035 114.394, 113.958 114.002, 111.333 114.006 C 105.760 114.014, 100.490 115.717, 97.031 118.627 C 95.364 120.030, 94 120.749, 94 120.225 C 94 118.697, 101.123 114.274, 105.766 112.919 C 108.932 111.995, 110.935 111.951, 113.538 112.750 C 116.920 113.788, 117.134 113.697, 119.523 110.181 C 120.885 108.176, 122 106.148, 122 105.673 C 122 104.212, 130.882 91.482, 133.771 88.803 C 135.272 87.410, 137.612 86.001, 138.970 85.672 C 142.226 84.881, 150.945 87.473, 155.556 90.603 C 159.659 93.387, 161.281 93.073, 158.525 90.027 C 154.086 85.122, 136.423 81.854, 128.286 84.432 M 84.652 89.750 C 84.396 90.162, 86.732 90.373, 89.843 90.217 C 99.610 89.730, 100.788 89.305, 92.809 89.150 C 88.579 89.067, 84.908 89.338, 84.652 89.750 M 79.872 92.750 C 78.629 94.336, 78.664 94.371, 80.250 93.128 C 81.916 91.821, 82.445 91, 81.622 91 C 81.415 91, 80.627 91.787, 79.872 92.750 M 66.750 99.728 C 64.688 99.944, 63 100.345, 63 100.619 C 63 100.893, 64.315 102.778, 65.922 104.809 C 71.790 112.221, 81 133.450, 81 139.563 C 81 142.760, 82.549 141.941, 83.465 138.259 C 83.842 136.742, 85.433 132.800, 86.999 129.500 C 91.925 119.123, 94.013 113.126, 92.933 112.459 C 92.379 112.116, 90.162 112.135, 88.005 112.499 C 82.203 113.479, 80.833 112.649, 76.470 105.505 C 74.286 101.930, 72.050 99.079, 71.500 99.170 C 70.950 99.262, 68.813 99.513, 66.750 99.728 M 56.441 102.441 C 55.031 103.488, 54.774 104.264, 55.500 105.277 C 65.585 119.339, 71.063 130.007, 73.712 140.746 C 75.280 147.099, 75.781 147.993, 77.781 147.996 C 80.879 148.001, 81.424 145.987, 80.009 139.762 C 76.576 124.657, 64.452 101, 60.143 101 C 59.175 101, 57.509 101.649, 56.441 102.441 M 114.264 103.718 C 115.784 103.947, 118.034 103.941, 119.264 103.704 C 120.494 103.467, 119.250 103.279, 116.500 103.286 C 113.750 103.294, 112.744 103.488, 114.264 103.718 M 54.022 109.250 C 54.034 109.938, 54.965 111.625, 56.089 113 L 58.134 115.500 56.898 113 C 56.218 111.625, 55.738 110.388, 55.831 110.250 C 56.380 109.438, 55.849 108, 55 108 C 54.450 108, 54.010 108.563, 54.022 109.250 M 150.192 118.713 C 148.923 118.956, 148.061 119.682, 148.277 120.327 C 148.707 121.614, 157.883 121.986, 158.653 120.748 C 159.104 120.022, 154.577 117.859, 153.185 118.136 C 152.808 118.211, 151.462 118.471, 150.192 118.713 M 28.384 136.913 C 23.648 139.064, 19.301 144.245, 18.383 148.834 L 17.750 152 23.875 152 C 28.587 152, 30 151.662, 30 150.535 C 30 146.599, 38.168 145.800, 40.592 149.500 C 42.032 151.698, 42.941 152, 48.115 152 C 51.352 152, 54 151.605, 54 151.122 C 54 148.897, 50.895 143.244, 48.332 140.803 C 44.941 137.573, 39.113 134.992, 35.282 135.022 C 33.752 135.034, 30.648 135.885, 28.384 136.913 M 32.200 150.200 C 29.395 153.005, 31.508 158, 35.500 158 C 38.355 158, 40 156.138, 40 152.907 C 40 149.224, 34.934 147.466, 32.200 150.200 M 79.464 151.942 C 79.777 152.448, 79.575 153.144, 79.016 153.490 C 78.457 153.835, 78.007 154.654, 78.015 155.309 C 78.025 156.067, 78.357 155.984, 78.929 155.081 C 79.567 154.072, 80.026 154.990, 80.516 158.260 C 80.896 160.789, 80.880 163.385, 80.482 164.029 C 79.933 164.917, 80.271 164.925, 81.879 164.065 C 83.103 163.410, 84 161.950, 84 160.614 C 84 157.104, 82.044 152.231, 80.378 151.592 C 79.563 151.279, 79.152 151.437, 79.464 151.942 M 18 156.599 C 18 159.556, 21.257 165.094, 24.411 167.500 C 34.892 175.494, 49.392 170.374, 53.441 157.250 C 54.104 155.099, 53.885 155, 48.432 155 C 43.634 155, 42.362 155.396, 40.412 157.500 C 39.138 158.875, 37.154 160, 36.002 160 C 34.851 160, 32.784 158.875, 31.409 157.500 C 29.354 155.444, 27.939 155, 23.455 155 C 19.123 155, 18 155.329, 18 156.599 M 71.200 158.200 C 69.465 159.935, 69.680 165.940, 71.502 166.639 C 74.005 167.600, 77.826 166.123, 78.524 163.926 C 79.741 160.090, 78.250 157, 75.181 157 C 73.651 157, 71.860 157.540, 71.200 158.200 M 114.232 161 C 114.232 162.925, 114.438 163.713, 114.689 162.750 C 114.941 161.787, 114.941 160.213, 114.689 159.250 C 114.438 158.287, 114.232 159.075, 114.232 161 M 86.370 162.511 C 85.376 165.744, 85.417 166.012, 86.706 164.723 C 87.513 163.916, 88.021 162.261, 87.836 161.044 C 87.564 159.252, 87.285 159.530, 86.370 162.511 M 115.079 170.583 C 115.127 171.748, 115.364 171.985, 115.683 171.188 C 115.972 170.466, 115.936 169.603, 115.604 169.271 C 115.272 168.939, 115.036 169.529, 115.079 170.583" stroke="none" fill="black" fill-rule="evenodd"/>
</svg>